<svg id="Capa_2" data-name="Capa 2" xmlns="http://www.w3.org/2000/svg" viewBox="0 0 193.86 192.94">
  <defs>
    <style>
      .cls-1 {
        fill: #8c193d;
      }
    </style>
  </defs>
  <g id="Capa_1-2" data-name="Capa 1">
    <g>
      <path class="cls-1" d="m96.6,192.94c-9.33-.16-18.62-1.41-27.75-4.2-18.53-5.66-33.96-15.93-46.41-30.69-9.75-11.55-16.37-24.74-19.8-39.46C.85,110.92-.12,103.1.01,95.2c.1-6.08.99-12.09,2.07-18.08,1.06-5.9,2.87-11.55,5.13-17.05,4.14-10.09,9.8-19.27,17.11-27.41,7.66-8.54,16.5-15.6,26.61-21.05,6.77-3.64,13.88-6.4,21.29-8.41,6.24-1.69,12.61-2.48,19.04-2.99,7.99-.64,15.88.2,23.74,1.51,8.01,1.33,15.6,4.01,22.96,7.41,10.16,4.69,19.22,10.97,27.19,18.8,6.51,6.39,12.02,13.59,16.47,21.57,4.72,8.45,8.07,17.42,10.13,26.87,1.36,6.24,1.98,12.59,2.09,18.96.09,5.03-.34,10.06-1.04,15.06-1.75,12.63-5.98,24.37-12.49,35.28-7.35,12.31-17.01,22.46-28.87,30.52-11.14,7.57-23.35,12.52-36.55,15.07-5.98,1.15-12.04,1.62-18.29,1.68Zm-20.22-108.87h0c0,3.25.02,6.5-.01,9.75,0,.76.13,1.23.99,1.43,4.9,1.14,9.75,2.49,14.41,4.42,1.03.42,1.24.2,1.26-.87.06-3.2-.32-6.41.22-9.59.06-.33-.01-.58-.3-.75-.58-.34-.44-.79-.26-1.3,1.3-3.6,2.7-7.16,3.65-10.89.17-.69.46-1.02,1.01-.25.16.23.37.53.7.38.34-.14.2-.51.22-.78.16-1.53.31-3.06.47-4.6.03-.33.05-.76.44-.8.5-.06.52.46.64.79.08.23.06.49.07.74.11,2.41.23,4.82.33,7.24.1,2.49.19,4.99.73,7.45.17.78,1.13,1.71-.38,2.22-.05.02-.07.22-.06.32.42,3.52.26,7.06.35,10.58.02.9.36.78.99.58,2.93-.93,5.74-2.22,8.77-2.84,1.91-.39,3.81-.88,5.72-1.28.77-.16,1.27-.59,1.58-1.27.47-1.02.94-2.04,1.35-3.09,2.76-7.07,3.58-14.42,3.03-21.95-.41-5.57-1.86-10.89-4.28-15.93-5.28-11.03-13.57-18.94-24.85-23.62-6.49-2.69-13.29-3.81-20.37-3.59-5.28.16-10.35,1.14-15.22,3.02-11.2,4.33-19.78,11.82-25.32,22.46-6.76,12.99-7.2,26.44-1.94,40.09,1.12,2.92,1.14,2.91,4.26,2.34.04,0,.08-.01.12-.01.98-.03,1.3-.48,1.3-1.49-.05-9.67-.06-19.33-.03-29,0-.87-.21-1.21-1.09-1.15-.29.02-.73.16-.86-.28-.09-.32.24-.49.44-.69,3.64-3.55,7.28-7.09,10.9-10.65,1.95-1.92,1.92-1.92,3.9.04,3.56,3.51,7.14,6.99,10.71,10.49.26.25.67.48.51.9-.12.31-.53.23-.79.2-.94-.1-1.01.48-.96,1.17.12,1.7.21,3.4,0,5.11-.05.37-.26.93.2,1.12.42.17.73-.32,1.03-.58,2.33-2.08,4.62-4.2,6.72-6.52.61-.67,1.12-.87,1.86-.14,3,2.95,6.03,5.86,9.04,8.8.18.17.35.36.49.56.11.16.29.33.13.56-.14.2-.35.22-.56.15-1.13-.42-1.27.23-1.27,1.13.01,3.29,0,6.58,0,9.87Zm94.12,16.19c.42-.24.73-.01,1.04.05,2.39.48,3.25-.18,3.21-2.65-.04-2.38.08-4.81-1.17-7-.08-.14-.18-.33-.15-.47.49-2.03-.83-2.34-2.33-2.5-.2-.02-.4-.11-.6-.15-2.35-.51-4.64-1.35-7.08-1.41-1.21-.03-1.81.76-1.59,1.95.17.93.66,1.79,1.55,1.94,1.38.24,2.09,1.55,3.55,1.68-.43.41-.74.36-1.07.26-1.55-.47-3.11-.91-4.66-1.39-1.34-.42-1.53-.84-.59-1.92.98-1.12,1.11-2.36,1.07-3.71-.01-.46-.1-.95.33-1.27.79-.59.81-1.41.68-2.25-.23-1.46.11-3.13-1.5-4.12-.4-.25-.42-.78-.36-1.26.08-.59.16-1.21-.52-1.52-.56-.25-1.16-.25-1.66.15-.55.44-.19.98-.07,1.49.13.53.3,1.22-.39,1.38-.87.21-.79.78-.86,1.4-.11,1.03-.39,2.07-1.61,2.21-1.06.12-2.21-.18-2.77,1.12-.03.07-.23.14-.33.11-1.21-.29-2.53-.38-3.58-.96-.72-.4.06-1.44.05-2.2,0-.08.02-.17.02-.25.01-.42-.25-.61-.61-.67-.41-.07-.6.19-.66.57-.04.29-.12.58-.11.87.04,1.22-.61,1.42-1.61,1.11-1.14-.36-2.31-.28-3.47-.17-.56.05-.99.32-.93.94.15,1.63-.47,3.11-.89,4.63-.3,1.08-.82,2.18-.66,3.28.33,2.15-.32,3.96-2.08,5.13-.55.36-.86.29-.89-.4-.04-.79-.03-1.58-.09-2.37-.11-1.45-1.72-2.25-2.91-1.42-1.15.8-2.19,1.83-2.4,3.23-.29,1.93-1.08,3.76-.97,5.77.08,1.37-.29,1.6-1.71,1.67-1.95.09-3.93.1-5.86.38-6.98,1-13.82,2.57-20.4,5.14-22.31,8.7-38.86,23.74-49.6,45.15-2.04,4.06-3.65,8.3-5.01,12.63-.18.57-.54,1.23.23,1.67,2.74,1.57,5.42,3.26,8.32,4.54.78.34,1.18.14,1.44-.73,3.29-10.95,8.74-20.76,15.81-29.68,5.91-7.45,12.8-13.89,20.63-19.31,6.64-4.59,13.72-8.41,21.28-11.16,6.36-2.31,12.91-4.14,19.67-4.99,5.54-.7,11.09-1.34,16.68-.8,1.79.18,3.8-.34,5.34,1.16.13.13.51.12.71.04,2.08-.86,3.88.66,6.09.49-.55.57-.99.47-1.38.5-4.44.31-8.88.43-13.32.94-8.66.99-17.02,3.04-25.09,6.29-12.16,4.9-22.92,11.94-32.33,21.08-6.77,6.58-12.54,13.92-17.2,22.12-3.15,5.54-5.8,11.33-7.78,17.41-.21.65-.39,1.16.52,1.45,3.69,1.18,7.47,1.96,11.22,2.91.71.18,1.13.01,1.28-.73.38-1.89,1.16-3.64,1.84-5.43,5.7-14.96,14.65-27.66,26.5-38.38,5.55-5.02,11.62-9.33,18.16-12.95,6.57-3.63,13.46-6.53,20.71-8.55,4.65-1.3,9.3-2.56,14.13-3.03,2.98-.29,5.96-.58,8.95-.79,2.6-.18,2.59-.23,2.61-3.02,0-.65.05-1.37-.84-1.37-.82,0-1.45.38-1.46,1.35,0,.54.02,1.08-.03,1.62-.04.33.09.93-.42.87-.51-.06-.29-.61-.19-.94.31-1.07.17-2.15.12-3.23-.02-.48-.22-.91-.73-1.07-.56-.17-.96.14-1.3.53-.41.47-.43,1.07-.52,1.64-.06.41-.13.82-.22,1.22-.04.17-.19.27-.38.24-.21-.03-.3-.22-.23-.37.63-1.42.18-2.88.16-4.32,0-.45.13-.59.58-.52,1.81.29,3.62.53,5.43.83.61.1,1.32.21,1.65.79,1,1.77,2.71,1.86,4.41,1.94.6.03.88.23.77.81-.27,1.47-.28,2.98-.77,4.41-.1.29-.27.58.03.78.67.44,1.43.4,2.17.27.64-.11.65-.67.71-1.17.23-1.83-.45-3.53-.81-5.28-.07-.35-.28-.54-.71-.52-1.78.07-3.33-.64-4.73-1.65-1.11-.81-2.28-1.31-3.68-1.34-.63-.01-1.41,0-1.82-.77Zm-118.61-2.61c-4.13-.1-8.23.16-12.33.7-9.95,1.31-19.4,4.2-28.39,8.63-2.83,1.4-2.78,1.42-2.09,4.55,1.54,7,4.25,13.56,7.54,19.89,4.03,7.78,9.16,14.78,15.24,21.07,2.49,2.57,5.12,5,7.94,7.23.64.51.94.45,1.25-.33.61-1.5,1.29-2.98,1.99-4.44,4.25-8.92,9.63-17.08,16.21-24.48,7.09-7.97,15.16-14.71,24.24-20.27,2.09-1.28,4.23-2.5,6.34-3.74.21-.12.49-.21.46-.51-.02-.25-.28-.26-.47-.34-1.78-.71-3.53-1.46-5.32-2.13-10.51-3.93-21.39-5.86-32.6-5.85Zm128.7,15.52v-.31c-.87-.53-1.71-1.17-2.65-1.56-1.01-.43-1.87-1.34-3.1-1.17-2.88.41-5.77.79-8.64,1.28-9.88,1.69-19.29,4.83-28.09,9.61-17.82,9.67-31.4,23.52-40.63,41.61-2.54,4.98-4.58,10.16-6.22,15.49-.54,1.77-.47,1.85,1.33,1.86,3,.02,6,0,9,.04.72.01,1.04-.25,1.25-.91,1.46-4.61,3.41-9.01,5.61-13.32,4.77-9.36,10.99-17.65,18.42-25.03,6.71-6.67,14.25-12.24,22.56-16.79,7.01-3.84,14.36-6.74,22.07-8.77,3-.79,5.97-1.7,9.08-2.05Zm3.95,3.38c.07-.37-.01-.53-.18-.58-.49-.15-.98-.08-1.48.04-5.74,1.48-11.25,3.59-16.58,6.15-11.55,5.55-21.58,13.15-30.23,22.58-8.74,9.53-15.3,20.41-19.9,32.48-.1.26-.35.58-.13.82.29.33.69.1,1.05.02,5.32-1.19,10.53-2.75,15.62-4.73.61-.24.81-.63,1.03-1.12,1.41-3.29,2.97-6.51,4.67-9.66,4.06-7.51,9.18-14.26,14.88-20.6,6.8-7.57,14.4-14.2,23-19.64,2.18-1.38,4.47-2.56,6.74-3.8.88-.48,1.35-1.2,1.52-1.96Zm-5.66,13.14c-.34-.07-.52.12-.72.27-2.58,1.97-5.05,4.1-7.37,6.36-7.09,6.9-13.09,14.64-17.64,23.46-.26.51-1.13,1.06-.52,1.58.5.42,1.05-.42,1.57-.71.07-.04.13-.11.19-.16,4.28-3.29,8.04-7.12,11.63-11.12,4.74-5.29,8.84-11.05,12.09-17.38.37-.71.85-1.42.77-2.29Zm-2.56-20.53c-.17-1.52-.27-2.72-.44-3.91-.1-.7-.4-.86-1.1-.43-1.46.9-1.07,2.29-1.12,3.58-.03.86.45,1.22,1.26,1.13.77-.09,1.4.04,2.08.51.55.38,1.57.79,1.89-.2.39-1.22.24-2.56.02-3.83-.1-.59-.64-.87-1.25-.8-.63.08-.59.6-.58,1.06.01.92-.15,1.79-.76,2.9Z"/>
      <path class="cls-1" d="m69.74,44.25c.83-1.57,1.33-1.84,2.88-1.47.69.16,1.22.16,1.61-.5.15-.26.38-.47.69-.47.55,0,1.35-.43,1.56.24.22.68-.74.39-1.06.72-.11.11-.34.11-.44.22-.92,1.12-1.92,1.47-3.3.7-.63-.35-1.32.18-1.94.57Z"/>
      <path class="cls-1" d="m99.03,49.71c.41-.22.62-.42.75-.38,1.31.35,2.46.07,3.54-.71.15-.11.42-.14.57.06.15.21-.05.37-.14.55q-.98,1.89-3.04,1.02c-.45-.19-.93-.3-1.68-.54Z"/>
      <path class="cls-1" d="m83.93,34.51c1.53.42,2.96,1.03,4.59.77,0,.13,0,.25,0,.38-.9.24-1.8.51-2.72.72-1.52.35-.96-1.5-1.87-1.86Z"/>
      <path class="cls-1" d="m84.82,55c-1.32,1.9-2.21,1.1-3.12-1.01.98.89,1.87,1.25,3.12,1.01Z"/>
      <path class="cls-1" d="m140.69,95.99c.45-2.8.99-5.51,2.55-7.91.34-.52.68-1.05.96-1.6.51-1,1.39-1.36,2.42-1.54.99-.17,1.14.64,1.21,1.22.09.85.37,1.72.4,2.45.05,1.06.13,2.29-.3,3.35-.18.44-.42.81-.19,1.28.21.44.11.8-.21,1.13-.33.34-.54.76-.55,1.23-.01,1-.18,1.85-1.28,2.27-.36.14-.75.72-.4,1.02.8.7.04.87-.3,1.12-2.02,1.5-3.27,1.01-3.84-1.49-.19-.85-.31-1.71-.46-2.55Zm1.4-.83c.02.46.04.91.07,1.37.04.62-.02,1.32.79,1.49.84.18,1.5-.18,1.84-.95,1.28-2.95,1.93-5.99,1.2-9.21-.09-.42-.21-.83-.71-.91-.44-.07-.68.26-.88.58-1.46,2.33-2.33,4.85-2.31,7.63Z"/>
      <path class="cls-1" d="m170.86,94.18c.48,1.27.58,2.77.09,4.28-.18.55-.25,1.25-1.01,1.22-.58-.02-1.56.19-1.62-.47-.06-.6.24-1.49,1.04-1.84.54-.23,1.15-.37,1.01-1.18-.08-.49-.3-.87-.79-1.03-.68-.23-1.45-.23-1.82.38-.8,1.32-1.9,1.27-3.14.96-.28-.07-.59-.15-.86-.09-2.2.47-4.14-.75-6.25-.92-.93-.07-1.44-.58-1.19-1.61.42-1.72.75-2.03,1.92-1.82.57.1.96.35.89.97-.12,1.08.49,1.48,1.41,1.66,1.26.25,2.52.53,3.78.78,1.34.26,2.29-.22,3.05-1.38.64-.98.93-2.13,1.67-3.05.49-.61.85-.52.98.15.19.96,1.07,1.68.84,2.98Z"/>
      <path class="cls-1" d="m155.59,103.04c-2.36-.44-4.58-.85-7.04-1.31,1.52-1.64,1.54-3.78,2.8-5.32.36-.44.49-.96.17-1.51-.16-.27-.24-.55.11-.74.23-.12.48-.17.71-.02.29.18.35.48.28.77-.17.68-.46,1.34-.57,2.03-.08.48-.4,1.19.33,1.4.62.18,1.11-.22,1.32-.86.04-.12.08-.24.15-.34.15-.22.36-.41.62-.26.29.17.19.48.01.64-.62.55-.42.98.14,1.4.41.31.45.79.48,1.24.07.91.16,1.81.5,2.89Z"/>
      <path class="cls-1" d="m162.11,102.43c-.4-.67.3-1.73-.69-2.09-.7-.25-1.09.41-1.48.84-.25,0-.29-.16-.37-.31-.59-1.23-1.29-1.32-2.1-.28-.24.31-.36.88-.88.74-.58-.16-.41-.75-.44-1.18-.12-1.66.1-1.75,1.75-1.39,2.47.55,4.87,1.38,7.38,1.75.36.05.9.02.9.47,0,.52-.63.59-.98.84-.5.35-.51-.15-.65-.41-.51-.93-.85-.94-1.5-.1-.29.37-.37.93-.94,1.11Z"/>
      <path class="cls-1" d="m138.31,100.93c-.12,0-.26.03-.37,0-.61-.18-1.5.59-1.82-.32-.3-.85.88-2.66,1.69-2.91.27-.08.58-.11.83-.24,1.24-.68,1.23-.69,1.26.7.02.74,0,1.49.38,2.17.31.56.14.76-.48.68-.49-.06-.99-.08-1.48-.12,0,.01,0,.02,0,.04Z"/>
      <path class="cls-1" d="m134.61,94.11c-.08.82-.22,1.65-.24,2.48-.02,1.08-1.48,1.2-1.45,2.29,0,.01-.27.08-.31.03-.12-.16-.28-.36-.26-.53.16-1.65.45-3.28.94-4.86.12-.39.43-.83.9-.7.68.19.29.84.41,1.29Z"/>
      <path class="cls-1" d="m157.48,88.52c-.15.69-.28,1.51-.52,2.29-.11.38-.41.81-.9.68-.44-.12-.41-.57-.4-.94.03-.89.32-1.7.8-2.44.17-.25.29-.71.69-.58.36.12.26.55.32,1Z"/>
      <path class="cls-1" d="m154.63,88.64c-.51-.45-.45-1.01-.68-1.43-.42-.74-.96-1.32-1.89-.87-.59.29-1.02.28-1.38-.29-.19-.3-.25-.64.07-.9.47-.39,1.05-.64,1.6-.27,1.29.86,2.06,2.06,2.28,3.76Z"/>
      <path class="cls-1" d="m142.66,86.83c.11-.7.1-1.38.12-2.06,0-.33.24-.55.58-.43.31.11.25.41.14.63-.3.6-.66,1.18-.84,1.86Z"/>
      <path class="cls-1" d="m152.86,92.47c-.03.3-.08.62-.48.56-.34-.05-.4-.38-.43-.67-.03-.33.08-.6.47-.54.35.05.43.34.43.65Z"/>
    </g>
  </g>
</svg>